<?xml version="1.0" encoding="utf-8" standalone="no"?>
<!DOCTYPE svg PUBLIC "-//W3C//DTD SVG 1.1//EN"
  "http://www.w3.org/Graphics/SVG/1.1/DTD/svg11.dtd">
<svg xmlns:xlink="http://www.w3.org/1999/xlink" width="720pt" height="432pt" viewBox="0 0 720 432" xmlns="http://www.w3.org/2000/svg" version="1.1">
 <metadata>
  <rdf:RDF xmlns:dc="http://purl.org/dc/elements/1.1/" xmlns:cc="http://creativecommons.org/ns#" xmlns:rdf="http://www.w3.org/1999/02/22-rdf-syntax-ns#">
   <cc:Work>
    <dc:type rdf:resource="http://purl.org/dc/dcmitype/StillImage"/>
    <dc:date>2025-04-07T00:35:05.705006</dc:date>
    <dc:format>image/svg+xml</dc:format>
    <dc:creator>
     <cc:Agent>
      <dc:title>Matplotlib v3.9.3, https://matplotlib.org/</dc:title>
     </cc:Agent>
    </dc:creator>
   </cc:Work>
  </rdf:RDF>
 </metadata>
 <defs>
  <style type="text/css">*{stroke-linejoin: round; stroke-linecap: butt}</style>
 </defs>
 <g id="figure_1">
  <g id="patch_1">
   <path d="M 0 432 
L 720 432 
L 720 0 
L 0 0 
z
" style="fill: #ffffff"/>
  </g>
  <g id="axes_1">
   <g id="patch_2">
    <path d="M 90 384.48 
L 648 384.48 
L 648 51.84 
L 90 51.84 
z
" style="fill: #ffffff"/>
   </g>
   <g id="PathCollection_1">
    <defs>
     <path id="m9b1eb30caf" d="M 0 3 
C 0.795609 3 1.55874 2.683901 2.12132 2.12132 
C 2.683901 1.55874 3 0.795609 3 0 
C 3 -0.795609 2.683901 -1.55874 2.12132 -2.12132 
C 1.55874 -2.683901 0.795609 -3 0 -3 
C -0.795609 -3 -1.55874 -2.683901 -2.12132 -2.12132 
C -2.683901 -1.55874 -3 -0.795609 -3 0 
C -3 0.795609 -2.683901 1.55874 -2.12132 2.12132 
C -1.55874 2.683901 -0.795609 3 0 3 
z
" style="stroke: #0000ff"/>
    </defs>
    <g clip-path="url(#p17197ae2f7)">
     <use xlink:href="#m9b1eb30caf" x="115.363636" y="349.930509" style="fill: #0000ff; stroke: #0000ff"/>
     <use xlink:href="#m9b1eb30caf" x="121.331551" y="340.149621" style="fill: #0000ff; stroke: #0000ff"/>
     <use xlink:href="#m9b1eb30caf" x="127.299465" y="325.133531" style="fill: #0000ff; stroke: #0000ff"/>
     <use xlink:href="#m9b1eb30caf" x="133.26738" y="317.129423" style="fill: #0000ff; stroke: #0000ff"/>
     <use xlink:href="#m9b1eb30caf" x="139.235294" y="306.981778" style="fill: #0000ff; stroke: #0000ff"/>
     <use xlink:href="#m9b1eb30caf" x="145.203209" y="299.593611" style="fill: #0000ff; stroke: #0000ff"/>
     <use xlink:href="#m9b1eb30caf" x="151.171123" y="292.584558" style="fill: #0000ff; stroke: #0000ff"/>
     <use xlink:href="#m9b1eb30caf" x="157.139037" y="286.579719" style="fill: #0000ff; stroke: #0000ff"/>
     <use xlink:href="#m9b1eb30caf" x="163.106952" y="281.098273" style="fill: #0000ff; stroke: #0000ff"/>
     <use xlink:href="#m9b1eb30caf" x="169.074866" y="275.933447" style="fill: #0000ff; stroke: #0000ff"/>
     <use xlink:href="#m9b1eb30caf" x="175.042781" y="271.567742" style="fill: #0000ff; stroke: #0000ff"/>
     <use xlink:href="#m9b1eb30caf" x="181.010695" y="267.480373" style="fill: #0000ff; stroke: #0000ff"/>
     <use xlink:href="#m9b1eb30caf" x="186.97861" y="263.892743" style="fill: #0000ff; stroke: #0000ff"/>
     <use xlink:href="#m9b1eb30caf" x="192.946524" y="260.764185" style="fill: #0000ff; stroke: #0000ff"/>
     <use xlink:href="#m9b1eb30caf" x="198.914439" y="258.002801" style="fill: #0000ff; stroke: #0000ff"/>
     <use xlink:href="#m9b1eb30caf" x="204.882353" y="255.695685" style="fill: #0000ff; stroke: #0000ff"/>
     <use xlink:href="#m9b1eb30caf" x="210.850267" y="253.726645" style="fill: #0000ff; stroke: #0000ff"/>
     <use xlink:href="#m9b1eb30caf" x="216.818182" y="252.106238" style="fill: #0000ff; stroke: #0000ff"/>
     <use xlink:href="#m9b1eb30caf" x="222.786096" y="250.884071" style="fill: #0000ff; stroke: #0000ff"/>
     <use xlink:href="#m9b1eb30caf" x="228.754011" y="250.016989" style="fill: #0000ff; stroke: #0000ff"/>
     <use xlink:href="#m9b1eb30caf" x="234.721925" y="249.467961" style="fill: #0000ff; stroke: #0000ff"/>
     <use xlink:href="#m9b1eb30caf" x="240.68984" y="249.326671" style="fill: #0000ff; stroke: #0000ff"/>
     <use xlink:href="#m9b1eb30caf" x="246.657754" y="249.476927" style="fill: #0000ff; stroke: #0000ff"/>
     <use xlink:href="#m9b1eb30caf" x="252.625668" y="249.993704" style="fill: #0000ff; stroke: #0000ff"/>
     <use xlink:href="#m9b1eb30caf" x="258.593583" y="250.898623" style="fill: #0000ff; stroke: #0000ff"/>
     <use xlink:href="#m9b1eb30caf" x="264.561497" y="252.120546" style="fill: #0000ff; stroke: #0000ff"/>
     <use xlink:href="#m9b1eb30caf" x="270.529412" y="253.715465" style="fill: #0000ff; stroke: #0000ff"/>
     <use xlink:href="#m9b1eb30caf" x="276.497326" y="255.696663" style="fill: #0000ff; stroke: #0000ff"/>
     <use xlink:href="#m9b1eb30caf" x="282.465241" y="258.005294" style="fill: #0000ff; stroke: #0000ff"/>
     <use xlink:href="#m9b1eb30caf" x="288.433155" y="260.740706" style="fill: #0000ff; stroke: #0000ff"/>
     <use xlink:href="#m9b1eb30caf" x="294.40107" y="263.986399" style="fill: #0000ff; stroke: #0000ff"/>
     <use xlink:href="#m9b1eb30caf" x="300.368984" y="267.452653" style="fill: #0000ff; stroke: #0000ff"/>
     <use xlink:href="#m9b1eb30caf" x="306.336898" y="271.529808" style="fill: #0000ff; stroke: #0000ff"/>
     <use xlink:href="#m9b1eb30caf" x="312.304813" y="276.052138" style="fill: #0000ff; stroke: #0000ff"/>
     <use xlink:href="#m9b1eb30caf" x="318.272727" y="280.913439" style="fill: #0000ff; stroke: #0000ff"/>
     <use xlink:href="#m9b1eb30caf" x="324.240642" y="286.694871" style="fill: #0000ff; stroke: #0000ff"/>
     <use xlink:href="#m9b1eb30caf" x="330.208556" y="292.80714" style="fill: #0000ff; stroke: #0000ff"/>
     <use xlink:href="#m9b1eb30caf" x="336.176471" y="299.523503" style="fill: #0000ff; stroke: #0000ff"/>
     <use xlink:href="#m9b1eb30caf" x="342.144385" y="307.877582" style="fill: #0000ff; stroke: #0000ff"/>
     <use xlink:href="#m9b1eb30caf" x="348.112299" y="316.624544" style="fill: #0000ff; stroke: #0000ff"/>
     <use xlink:href="#m9b1eb30caf" x="354.080214" y="329.68318" style="fill: #0000ff; stroke: #0000ff"/>
     <use xlink:href="#m9b1eb30caf" x="366.016043" y="353.284261" style="fill: #0000ff; stroke: #0000ff"/>
    </g>
   </g>
   <g id="PathCollection_2">
    <defs>
     <path id="m28c1626cd1" d="M 0 3 
C 0.795609 3 1.55874 2.683901 2.12132 2.12132 
C 2.683901 1.55874 3 0.795609 3 0 
C 3 -0.795609 2.683901 -1.55874 2.12132 -2.12132 
C 1.55874 -2.683901 0.795609 -3 0 -3 
C -0.795609 -3 -1.55874 -2.683901 -2.12132 -2.12132 
C -2.683901 -1.55874 -3 -0.795609 -3 0 
C -3 0.795609 -2.683901 1.55874 -2.12132 2.12132 
C -1.55874 2.683901 -0.795609 3 0 3 
z
" style="stroke: #ff0000"/>
    </defs>
    <g clip-path="url(#p17197ae2f7)">
     <use xlink:href="#m28c1626cd1" x="121.331551" y="340.149621" style="fill: #ff0000; stroke: #ff0000"/>
     <use xlink:href="#m28c1626cd1" x="127.299465" y="327.880069" style="fill: #ff0000; stroke: #ff0000"/>
     <use xlink:href="#m28c1626cd1" x="133.26738" y="315.905771" style="fill: #ff0000; stroke: #ff0000"/>
     <use xlink:href="#m28c1626cd1" x="139.235294" y="307.456545" style="fill: #ff0000; stroke: #ff0000"/>
     <use xlink:href="#m28c1626cd1" x="145.203209" y="300.349377" style="fill: #ff0000; stroke: #ff0000"/>
     <use xlink:href="#m28c1626cd1" x="151.171123" y="292.692141" style="fill: #ff0000; stroke: #ff0000"/>
     <use xlink:href="#m28c1626cd1" x="157.139037" y="286.346091" style="fill: #ff0000; stroke: #ff0000"/>
     <use xlink:href="#m28c1626cd1" x="163.106952" y="280.938442" style="fill: #ff0000; stroke: #ff0000"/>
     <use xlink:href="#m28c1626cd1" x="169.074866" y="276.012894" style="fill: #ff0000; stroke: #ff0000"/>
     <use xlink:href="#m28c1626cd1" x="175.042781" y="271.449839" style="fill: #ff0000; stroke: #ff0000"/>
     <use xlink:href="#m28c1626cd1" x="181.010695" y="267.510076" style="fill: #ff0000; stroke: #ff0000"/>
     <use xlink:href="#m28c1626cd1" x="186.97861" y="263.883826" style="fill: #ff0000; stroke: #ff0000"/>
     <use xlink:href="#m28c1626cd1" x="192.946524" y="260.74502" style="fill: #ff0000; stroke: #ff0000"/>
     <use xlink:href="#m28c1626cd1" x="198.914439" y="258.026809" style="fill: #ff0000; stroke: #ff0000"/>
     <use xlink:href="#m28c1626cd1" x="204.882353" y="255.672635" style="fill: #ff0000; stroke: #ff0000"/>
     <use xlink:href="#m28c1626cd1" x="210.850267" y="253.726721" style="fill: #ff0000; stroke: #ff0000"/>
     <use xlink:href="#m28c1626cd1" x="216.818182" y="252.129946" style="fill: #ff0000; stroke: #ff0000"/>
     <use xlink:href="#m28c1626cd1" x="222.786096" y="250.880566" style="fill: #ff0000; stroke: #ff0000"/>
     <use xlink:href="#m28c1626cd1" x="228.754011" y="250.005995" style="fill: #ff0000; stroke: #ff0000"/>
     <use xlink:href="#m28c1626cd1" x="234.721925" y="249.468566" style="fill: #ff0000; stroke: #ff0000"/>
     <use xlink:href="#m28c1626cd1" x="240.68984" y="249.308868" style="fill: #ff0000; stroke: #ff0000"/>
     <use xlink:href="#m28c1626cd1" x="246.657754" y="249.470821" style="fill: #ff0000; stroke: #ff0000"/>
     <use xlink:href="#m28c1626cd1" x="252.625668" y="249.992432" style="fill: #ff0000; stroke: #ff0000"/>
     <use xlink:href="#m28c1626cd1" x="258.593583" y="250.870926" style="fill: #ff0000; stroke: #ff0000"/>
     <use xlink:href="#m28c1626cd1" x="264.561497" y="252.118838" style="fill: #ff0000; stroke: #ff0000"/>
     <use xlink:href="#m28c1626cd1" x="270.529412" y="253.678975" style="fill: #ff0000; stroke: #ff0000"/>
     <use xlink:href="#m28c1626cd1" x="276.497326" y="255.657824" style="fill: #ff0000; stroke: #ff0000"/>
     <use xlink:href="#m28c1626cd1" x="282.465241" y="258.031212" style="fill: #ff0000; stroke: #ff0000"/>
     <use xlink:href="#m28c1626cd1" x="288.433155" y="260.791425" style="fill: #ff0000; stroke: #ff0000"/>
     <use xlink:href="#m28c1626cd1" x="294.40107" y="263.885362" style="fill: #ff0000; stroke: #ff0000"/>
     <use xlink:href="#m28c1626cd1" x="300.368984" y="267.457452" style="fill: #ff0000; stroke: #ff0000"/>
     <use xlink:href="#m28c1626cd1" x="306.336898" y="271.381316" style="fill: #ff0000; stroke: #ff0000"/>
     <use xlink:href="#m28c1626cd1" x="312.304813" y="275.924359" style="fill: #ff0000; stroke: #ff0000"/>
     <use xlink:href="#m28c1626cd1" x="318.272727" y="281.03422" style="fill: #ff0000; stroke: #ff0000"/>
     <use xlink:href="#m28c1626cd1" x="324.240642" y="286.530132" style="fill: #ff0000; stroke: #ff0000"/>
     <use xlink:href="#m28c1626cd1" x="330.208556" y="292.700595" style="fill: #ff0000; stroke: #ff0000"/>
     <use xlink:href="#m28c1626cd1" x="336.176471" y="299.256124" style="fill: #ff0000; stroke: #ff0000"/>
     <use xlink:href="#m28c1626cd1" x="342.144385" y="307.199566" style="fill: #ff0000; stroke: #ff0000"/>
     <use xlink:href="#m28c1626cd1" x="348.112299" y="317.400422" style="fill: #ff0000; stroke: #ff0000"/>
     <use xlink:href="#m28c1626cd1" x="354.080214" y="326.258757" style="fill: #ff0000; stroke: #ff0000"/>
     <use xlink:href="#m28c1626cd1" x="360.048128" y="341.317832" style="fill: #ff0000; stroke: #ff0000"/>
     <use xlink:href="#m28c1626cd1" x="371.983957" y="369.36" style="fill: #ff0000; stroke: #ff0000"/>
    </g>
   </g>
   <g id="PathCollection_3">
    <defs>
     <path id="m0a5356676d" d="M 0 3 
C 0.795609 3 1.55874 2.683901 2.12132 2.12132 
C 2.683901 1.55874 3 0.795609 3 0 
C 3 -0.795609 2.683901 -1.55874 2.12132 -2.12132 
C 1.55874 -2.683901 0.795609 -3 0 -3 
C -0.795609 -3 -1.55874 -2.683901 -2.12132 -2.12132 
C -2.683901 -1.55874 -3 -0.795609 -3 0 
C -3 0.795609 -2.683901 1.55874 -2.12132 2.12132 
C -1.55874 2.683901 -0.795609 3 0 3 
z
" style="stroke: #008000"/>
    </defs>
    <g clip-path="url(#p17197ae2f7)">
     <use xlink:href="#m0a5356676d" x="252.625668" y="203.113599" style="fill: #008000; stroke: #008000"/>
     <use xlink:href="#m0a5356676d" x="258.593583" y="180.226681" style="fill: #008000; stroke: #008000"/>
     <use xlink:href="#m0a5356676d" x="264.561497" y="168.082245" style="fill: #008000; stroke: #008000"/>
     <use xlink:href="#m0a5356676d" x="270.529412" y="161.398207" style="fill: #008000; stroke: #008000"/>
     <use xlink:href="#m0a5356676d" x="276.497326" y="155.911558" style="fill: #008000; stroke: #008000"/>
     <use xlink:href="#m0a5356676d" x="282.465241" y="145.023025" style="fill: #008000; stroke: #008000"/>
     <use xlink:href="#m0a5356676d" x="288.433155" y="138.678738" style="fill: #008000; stroke: #008000"/>
     <use xlink:href="#m0a5356676d" x="294.40107" y="131.940621" style="fill: #008000; stroke: #008000"/>
     <use xlink:href="#m0a5356676d" x="300.368984" y="125.016712" style="fill: #008000; stroke: #008000"/>
     <use xlink:href="#m0a5356676d" x="306.336898" y="120.968556" style="fill: #008000; stroke: #008000"/>
     <use xlink:href="#m0a5356676d" x="312.304813" y="116.082183" style="fill: #008000; stroke: #008000"/>
     <use xlink:href="#m0a5356676d" x="318.272727" y="111.512923" style="fill: #008000; stroke: #008000"/>
     <use xlink:href="#m0a5356676d" x="324.240642" y="107.318695" style="fill: #008000; stroke: #008000"/>
     <use xlink:href="#m0a5356676d" x="330.208556" y="103.255455" style="fill: #008000; stroke: #008000"/>
     <use xlink:href="#m0a5356676d" x="336.176471" y="99.656612" style="fill: #008000; stroke: #008000"/>
     <use xlink:href="#m0a5356676d" x="342.144385" y="96.188265" style="fill: #008000; stroke: #008000"/>
     <use xlink:href="#m0a5356676d" x="348.112299" y="92.805061" style="fill: #008000; stroke: #008000"/>
     <use xlink:href="#m0a5356676d" x="354.080214" y="89.804998" style="fill: #008000; stroke: #008000"/>
     <use xlink:href="#m0a5356676d" x="360.048128" y="87.055923" style="fill: #008000; stroke: #008000"/>
     <use xlink:href="#m0a5356676d" x="366.016043" y="84.369992" style="fill: #008000; stroke: #008000"/>
     <use xlink:href="#m0a5356676d" x="371.983957" y="81.945766" style="fill: #008000; stroke: #008000"/>
     <use xlink:href="#m0a5356676d" x="377.951872" y="79.682796" style="fill: #008000; stroke: #008000"/>
     <use xlink:href="#m0a5356676d" x="383.919786" y="77.622043" style="fill: #008000; stroke: #008000"/>
     <use xlink:href="#m0a5356676d" x="389.887701" y="75.733312" style="fill: #008000; stroke: #008000"/>
     <use xlink:href="#m0a5356676d" x="395.855615" y="74.084814" style="fill: #008000; stroke: #008000"/>
     <use xlink:href="#m0a5356676d" x="401.823529" y="72.578141" style="fill: #008000; stroke: #008000"/>
     <use xlink:href="#m0a5356676d" x="407.791444" y="71.246625" style="fill: #008000; stroke: #008000"/>
     <use xlink:href="#m0a5356676d" x="413.759358" y="70.101102" style="fill: #008000; stroke: #008000"/>
     <use xlink:href="#m0a5356676d" x="419.727273" y="69.124114" style="fill: #008000; stroke: #008000"/>
     <use xlink:href="#m0a5356676d" x="425.695187" y="68.34537" style="fill: #008000; stroke: #008000"/>
     <use xlink:href="#m0a5356676d" x="431.663102" y="67.716676" style="fill: #008000; stroke: #008000"/>
     <use xlink:href="#m0a5356676d" x="437.631016" y="67.317568" style="fill: #008000; stroke: #008000"/>
     <use xlink:href="#m0a5356676d" x="443.59893" y="67.043894" style="fill: #008000; stroke: #008000"/>
     <use xlink:href="#m0a5356676d" x="449.566845" y="66.96" style="fill: #008000; stroke: #008000"/>
     <use xlink:href="#m0a5356676d" x="455.534759" y="67.006822" style="fill: #008000; stroke: #008000"/>
     <use xlink:href="#m0a5356676d" x="461.502674" y="67.305614" style="fill: #008000; stroke: #008000"/>
     <use xlink:href="#m0a5356676d" x="467.470588" y="67.717382" style="fill: #008000; stroke: #008000"/>
     <use xlink:href="#m0a5356676d" x="473.438503" y="68.332253" style="fill: #008000; stroke: #008000"/>
     <use xlink:href="#m0a5356676d" x="479.406417" y="69.155634" style="fill: #008000; stroke: #008000"/>
     <use xlink:href="#m0a5356676d" x="485.374332" y="70.111833" style="fill: #008000; stroke: #008000"/>
     <use xlink:href="#m0a5356676d" x="491.342246" y="71.236786" style="fill: #008000; stroke: #008000"/>
     <use xlink:href="#m0a5356676d" x="497.31016" y="72.53252" style="fill: #008000; stroke: #008000"/>
     <use xlink:href="#m0a5356676d" x="503.278075" y="74.072081" style="fill: #008000; stroke: #008000"/>
     <use xlink:href="#m0a5356676d" x="509.245989" y="75.763539" style="fill: #008000; stroke: #008000"/>
     <use xlink:href="#m0a5356676d" x="515.213904" y="77.645649" style="fill: #008000; stroke: #008000"/>
     <use xlink:href="#m0a5356676d" x="521.181818" y="79.725259" style="fill: #008000; stroke: #008000"/>
     <use xlink:href="#m0a5356676d" x="527.149733" y="82.00158" style="fill: #008000; stroke: #008000"/>
     <use xlink:href="#m0a5356676d" x="533.117647" y="84.368836" style="fill: #008000; stroke: #008000"/>
     <use xlink:href="#m0a5356676d" x="539.085561" y="86.993104" style="fill: #008000; stroke: #008000"/>
     <use xlink:href="#m0a5356676d" x="545.053476" y="89.868767" style="fill: #008000; stroke: #008000"/>
     <use xlink:href="#m0a5356676d" x="551.02139" y="92.941565" style="fill: #008000; stroke: #008000"/>
     <use xlink:href="#m0a5356676d" x="556.989305" y="96.141364" style="fill: #008000; stroke: #008000"/>
     <use xlink:href="#m0a5356676d" x="562.957219" y="99.648007" style="fill: #008000; stroke: #008000"/>
     <use xlink:href="#m0a5356676d" x="568.925134" y="103.165636" style="fill: #008000; stroke: #008000"/>
     <use xlink:href="#m0a5356676d" x="574.893048" y="107.07918" style="fill: #008000; stroke: #008000"/>
     <use xlink:href="#m0a5356676d" x="580.860963" y="111.252273" style="fill: #008000; stroke: #008000"/>
     <use xlink:href="#m0a5356676d" x="586.828877" y="116.118121" style="fill: #008000; stroke: #008000"/>
     <use xlink:href="#m0a5356676d" x="592.796791" y="121.054451" style="fill: #008000; stroke: #008000"/>
     <use xlink:href="#m0a5356676d" x="598.764706" y="125.633339" style="fill: #008000; stroke: #008000"/>
     <use xlink:href="#m0a5356676d" x="604.73262" y="131.35475" style="fill: #008000; stroke: #008000"/>
     <use xlink:href="#m0a5356676d" x="610.700535" y="136.059895" style="fill: #008000; stroke: #008000"/>
     <use xlink:href="#m0a5356676d" x="616.668449" y="161.398207" style="fill: #008000; stroke: #008000"/>
     <use xlink:href="#m0a5356676d" x="622.636364" y="156.444641" style="fill: #008000; stroke: #008000"/>
    </g>
   </g>
   <g id="matplotlib.axis_1">
    <g id="xtick_1">
     <g id="line2d_1">
      <path d="M 151.171123 384.48 
L 151.171123 51.84 
" clip-path="url(#p17197ae2f7)" style="fill: none; stroke: #b0b0b0; stroke-width: 0.8; stroke-linecap: square"/>
     </g>
     <g id="line2d_2">
      <defs>
       <path id="mb52a0a379b" d="M 0 0 
L 0 3.5 
" style="stroke: #000000; stroke-width: 0.8"/>
      </defs>
      <g>
       <use xlink:href="#mb52a0a379b" x="151.171123" y="384.48" style="stroke: #000000; stroke-width: 0.8"/>
      </g>
     </g>
     <g id="text_1">
      <!-- 20 -->
      <g transform="translate(144.808623 399.078438) scale(0.1 -0.1)">
       <defs>
        <path id="DejaVuSans-32" d="M 1228 531 
L 3431 531 
L 3431 0 
L 469 0 
L 469 531 
Q 828 903 1448 1529 
Q 2069 2156 2228 2338 
Q 2531 2678 2651 2914 
Q 2772 3150 2772 3378 
Q 2772 3750 2511 3984 
Q 2250 4219 1831 4219 
Q 1534 4219 1204 4116 
Q 875 4013 500 3803 
L 500 4441 
Q 881 4594 1212 4672 
Q 1544 4750 1819 4750 
Q 2544 4750 2975 4387 
Q 3406 4025 3406 3419 
Q 3406 3131 3298 2873 
Q 3191 2616 2906 2266 
Q 2828 2175 2409 1742 
Q 1991 1309 1228 531 
z
" transform="scale(0.015625)"/>
        <path id="DejaVuSans-30" d="M 2034 4250 
Q 1547 4250 1301 3770 
Q 1056 3291 1056 2328 
Q 1056 1369 1301 889 
Q 1547 409 2034 409 
Q 2525 409 2770 889 
Q 3016 1369 3016 2328 
Q 3016 3291 2770 3770 
Q 2525 4250 2034 4250 
z
M 2034 4750 
Q 2819 4750 3233 4129 
Q 3647 3509 3647 2328 
Q 3647 1150 3233 529 
Q 2819 -91 2034 -91 
Q 1250 -91 836 529 
Q 422 1150 422 2328 
Q 422 3509 836 4129 
Q 1250 4750 2034 4750 
z
" transform="scale(0.015625)"/>
       </defs>
       <use xlink:href="#DejaVuSans-32"/>
       <use xlink:href="#DejaVuSans-30" x="63.623047"/>
      </g>
     </g>
    </g>
    <g id="xtick_2">
     <g id="line2d_3">
      <path d="M 270.529412 384.48 
L 270.529412 51.84 
" clip-path="url(#p17197ae2f7)" style="fill: none; stroke: #b0b0b0; stroke-width: 0.8; stroke-linecap: square"/>
     </g>
     <g id="line2d_4">
      <g>
       <use xlink:href="#mb52a0a379b" x="270.529412" y="384.48" style="stroke: #000000; stroke-width: 0.8"/>
      </g>
     </g>
     <g id="text_2">
      <!-- 40 -->
      <g transform="translate(264.166912 399.078438) scale(0.1 -0.1)">
       <defs>
        <path id="DejaVuSans-34" d="M 2419 4116 
L 825 1625 
L 2419 1625 
L 2419 4116 
z
M 2253 4666 
L 3047 4666 
L 3047 1625 
L 3713 1625 
L 3713 1100 
L 3047 1100 
L 3047 0 
L 2419 0 
L 2419 1100 
L 313 1100 
L 313 1709 
L 2253 4666 
z
" transform="scale(0.015625)"/>
       </defs>
       <use xlink:href="#DejaVuSans-34"/>
       <use xlink:href="#DejaVuSans-30" x="63.623047"/>
      </g>
     </g>
    </g>
    <g id="xtick_3">
     <g id="line2d_5">
      <path d="M 389.887701 384.48 
L 389.887701 51.84 
" clip-path="url(#p17197ae2f7)" style="fill: none; stroke: #b0b0b0; stroke-width: 0.8; stroke-linecap: square"/>
     </g>
     <g id="line2d_6">
      <g>
       <use xlink:href="#mb52a0a379b" x="389.887701" y="384.48" style="stroke: #000000; stroke-width: 0.8"/>
      </g>
     </g>
     <g id="text_3">
      <!-- 60 -->
      <g transform="translate(383.525201 399.078438) scale(0.1 -0.1)">
       <defs>
        <path id="DejaVuSans-36" d="M 2113 2584 
Q 1688 2584 1439 2293 
Q 1191 2003 1191 1497 
Q 1191 994 1439 701 
Q 1688 409 2113 409 
Q 2538 409 2786 701 
Q 3034 994 3034 1497 
Q 3034 2003 2786 2293 
Q 2538 2584 2113 2584 
z
M 3366 4563 
L 3366 3988 
Q 3128 4100 2886 4159 
Q 2644 4219 2406 4219 
Q 1781 4219 1451 3797 
Q 1122 3375 1075 2522 
Q 1259 2794 1537 2939 
Q 1816 3084 2150 3084 
Q 2853 3084 3261 2657 
Q 3669 2231 3669 1497 
Q 3669 778 3244 343 
Q 2819 -91 2113 -91 
Q 1303 -91 875 529 
Q 447 1150 447 2328 
Q 447 3434 972 4092 
Q 1497 4750 2381 4750 
Q 2619 4750 2861 4703 
Q 3103 4656 3366 4563 
z
" transform="scale(0.015625)"/>
       </defs>
       <use xlink:href="#DejaVuSans-36"/>
       <use xlink:href="#DejaVuSans-30" x="63.623047"/>
      </g>
     </g>
    </g>
    <g id="xtick_4">
     <g id="line2d_7">
      <path d="M 509.245989 384.48 
L 509.245989 51.84 
" clip-path="url(#p17197ae2f7)" style="fill: none; stroke: #b0b0b0; stroke-width: 0.8; stroke-linecap: square"/>
     </g>
     <g id="line2d_8">
      <g>
       <use xlink:href="#mb52a0a379b" x="509.245989" y="384.48" style="stroke: #000000; stroke-width: 0.8"/>
      </g>
     </g>
     <g id="text_4">
      <!-- 80 -->
      <g transform="translate(502.883489 399.078438) scale(0.1 -0.1)">
       <defs>
        <path id="DejaVuSans-38" d="M 2034 2216 
Q 1584 2216 1326 1975 
Q 1069 1734 1069 1313 
Q 1069 891 1326 650 
Q 1584 409 2034 409 
Q 2484 409 2743 651 
Q 3003 894 3003 1313 
Q 3003 1734 2745 1975 
Q 2488 2216 2034 2216 
z
M 1403 2484 
Q 997 2584 770 2862 
Q 544 3141 544 3541 
Q 544 4100 942 4425 
Q 1341 4750 2034 4750 
Q 2731 4750 3128 4425 
Q 3525 4100 3525 3541 
Q 3525 3141 3298 2862 
Q 3072 2584 2669 2484 
Q 3125 2378 3379 2068 
Q 3634 1759 3634 1313 
Q 3634 634 3220 271 
Q 2806 -91 2034 -91 
Q 1263 -91 848 271 
Q 434 634 434 1313 
Q 434 1759 690 2068 
Q 947 2378 1403 2484 
z
M 1172 3481 
Q 1172 3119 1398 2916 
Q 1625 2713 2034 2713 
Q 2441 2713 2670 2916 
Q 2900 3119 2900 3481 
Q 2900 3844 2670 4047 
Q 2441 4250 2034 4250 
Q 1625 4250 1398 4047 
Q 1172 3844 1172 3481 
z
" transform="scale(0.015625)"/>
       </defs>
       <use xlink:href="#DejaVuSans-38"/>
       <use xlink:href="#DejaVuSans-30" x="63.623047"/>
      </g>
     </g>
    </g>
    <g id="xtick_5">
     <g id="line2d_9">
      <path d="M 628.604278 384.48 
L 628.604278 51.84 
" clip-path="url(#p17197ae2f7)" style="fill: none; stroke: #b0b0b0; stroke-width: 0.8; stroke-linecap: square"/>
     </g>
     <g id="line2d_10">
      <g>
       <use xlink:href="#mb52a0a379b" x="628.604278" y="384.48" style="stroke: #000000; stroke-width: 0.8"/>
      </g>
     </g>
     <g id="text_5">
      <!-- 100 -->
      <g transform="translate(619.060528 399.078438) scale(0.1 -0.1)">
       <defs>
        <path id="DejaVuSans-31" d="M 794 531 
L 1825 531 
L 1825 4091 
L 703 3866 
L 703 4441 
L 1819 4666 
L 2450 4666 
L 2450 531 
L 3481 531 
L 3481 0 
L 794 0 
L 794 531 
z
" transform="scale(0.015625)"/>
       </defs>
       <use xlink:href="#DejaVuSans-31"/>
       <use xlink:href="#DejaVuSans-30" x="63.623047"/>
       <use xlink:href="#DejaVuSans-30" x="127.246094"/>
      </g>
     </g>
    </g>
    <g id="text_6">
     <!-- Energy -->
     <g transform="translate(340.99 417.315625) scale(0.16 -0.16)">
      <defs>
       <path id="DejaVuSans-45" d="M 628 4666 
L 3578 4666 
L 3578 4134 
L 1259 4134 
L 1259 2753 
L 3481 2753 
L 3481 2222 
L 1259 2222 
L 1259 531 
L 3634 531 
L 3634 0 
L 628 0 
L 628 4666 
z
" transform="scale(0.015625)"/>
       <path id="DejaVuSans-6e" d="M 3513 2113 
L 3513 0 
L 2938 0 
L 2938 2094 
Q 2938 2591 2744 2837 
Q 2550 3084 2163 3084 
Q 1697 3084 1428 2787 
Q 1159 2491 1159 1978 
L 1159 0 
L 581 0 
L 581 3500 
L 1159 3500 
L 1159 2956 
Q 1366 3272 1645 3428 
Q 1925 3584 2291 3584 
Q 2894 3584 3203 3211 
Q 3513 2838 3513 2113 
z
" transform="scale(0.015625)"/>
       <path id="DejaVuSans-65" d="M 3597 1894 
L 3597 1613 
L 953 1613 
Q 991 1019 1311 708 
Q 1631 397 2203 397 
Q 2534 397 2845 478 
Q 3156 559 3463 722 
L 3463 178 
Q 3153 47 2828 -22 
Q 2503 -91 2169 -91 
Q 1331 -91 842 396 
Q 353 884 353 1716 
Q 353 2575 817 3079 
Q 1281 3584 2069 3584 
Q 2775 3584 3186 3129 
Q 3597 2675 3597 1894 
z
M 3022 2063 
Q 3016 2534 2758 2815 
Q 2500 3097 2075 3097 
Q 1594 3097 1305 2825 
Q 1016 2553 972 2059 
L 3022 2063 
z
" transform="scale(0.015625)"/>
       <path id="DejaVuSans-72" d="M 2631 2963 
Q 2534 3019 2420 3045 
Q 2306 3072 2169 3072 
Q 1681 3072 1420 2755 
Q 1159 2438 1159 1844 
L 1159 0 
L 581 0 
L 581 3500 
L 1159 3500 
L 1159 2956 
Q 1341 3275 1631 3429 
Q 1922 3584 2338 3584 
Q 2397 3584 2469 3576 
Q 2541 3569 2628 3553 
L 2631 2963 
z
" transform="scale(0.015625)"/>
       <path id="DejaVuSans-67" d="M 2906 1791 
Q 2906 2416 2648 2759 
Q 2391 3103 1925 3103 
Q 1463 3103 1205 2759 
Q 947 2416 947 1791 
Q 947 1169 1205 825 
Q 1463 481 1925 481 
Q 2391 481 2648 825 
Q 2906 1169 2906 1791 
z
M 3481 434 
Q 3481 -459 3084 -895 
Q 2688 -1331 1869 -1331 
Q 1566 -1331 1297 -1286 
Q 1028 -1241 775 -1147 
L 775 -588 
Q 1028 -725 1275 -790 
Q 1522 -856 1778 -856 
Q 2344 -856 2625 -561 
Q 2906 -266 2906 331 
L 2906 616 
Q 2728 306 2450 153 
Q 2172 0 1784 0 
Q 1141 0 747 490 
Q 353 981 353 1791 
Q 353 2603 747 3093 
Q 1141 3584 1784 3584 
Q 2172 3584 2450 3431 
Q 2728 3278 2906 2969 
L 2906 3500 
L 3481 3500 
L 3481 434 
z
" transform="scale(0.015625)"/>
       <path id="DejaVuSans-79" d="M 2059 -325 
Q 1816 -950 1584 -1140 
Q 1353 -1331 966 -1331 
L 506 -1331 
L 506 -850 
L 844 -850 
Q 1081 -850 1212 -737 
Q 1344 -625 1503 -206 
L 1606 56 
L 191 3500 
L 800 3500 
L 1894 763 
L 2988 3500 
L 3597 3500 
L 2059 -325 
z
" transform="scale(0.015625)"/>
      </defs>
      <use xlink:href="#DejaVuSans-45"/>
      <use xlink:href="#DejaVuSans-6e" x="63.183594"/>
      <use xlink:href="#DejaVuSans-65" x="126.5625"/>
      <use xlink:href="#DejaVuSans-72" x="188.085938"/>
      <use xlink:href="#DejaVuSans-67" x="227.449219"/>
      <use xlink:href="#DejaVuSans-79" x="290.925781"/>
     </g>
    </g>
   </g>
   <g id="matplotlib.axis_2">
    <g id="ytick_1">
     <g id="line2d_11">
      <path d="M 90 380.640384 
L 648 380.640384 
" clip-path="url(#p17197ae2f7)" style="fill: none; stroke: #b0b0b0; stroke-width: 0.8; stroke-linecap: square"/>
     </g>
     <g id="line2d_12">
      <defs>
       <path id="m3bc1a6d51c" d="M 0 0 
L -3.5 0 
" style="stroke: #000000; stroke-width: 0.8"/>
      </defs>
      <g>
       <use xlink:href="#m3bc1a6d51c" x="90" y="380.640384" style="stroke: #000000; stroke-width: 0.8"/>
      </g>
     </g>
     <g id="text_7">
      <!-- 5 -->
      <g transform="translate(76.6375 384.439602) scale(0.1 -0.1)">
       <defs>
        <path id="DejaVuSans-35" d="M 691 4666 
L 3169 4666 
L 3169 4134 
L 1269 4134 
L 1269 2991 
Q 1406 3038 1543 3061 
Q 1681 3084 1819 3084 
Q 2600 3084 3056 2656 
Q 3513 2228 3513 1497 
Q 3513 744 3044 326 
Q 2575 -91 1722 -91 
Q 1428 -91 1123 -41 
Q 819 9 494 109 
L 494 744 
Q 775 591 1075 516 
Q 1375 441 1709 441 
Q 2250 441 2565 725 
Q 2881 1009 2881 1497 
Q 2881 1984 2565 2268 
Q 2250 2553 1709 2553 
Q 1456 2553 1204 2497 
Q 953 2441 691 2322 
L 691 4666 
z
" transform="scale(0.015625)"/>
       </defs>
       <use xlink:href="#DejaVuSans-35"/>
      </g>
     </g>
    </g>
    <g id="ytick_2">
     <g id="line2d_13">
      <path d="M 90 329.765654 
L 648 329.765654 
" clip-path="url(#p17197ae2f7)" style="fill: none; stroke: #b0b0b0; stroke-width: 0.8; stroke-linecap: square"/>
     </g>
     <g id="line2d_14">
      <g>
       <use xlink:href="#m3bc1a6d51c" x="90" y="329.765654" style="stroke: #000000; stroke-width: 0.8"/>
      </g>
     </g>
     <g id="text_8">
      <!-- 10 -->
      <g transform="translate(70.275 333.564873) scale(0.1 -0.1)">
       <use xlink:href="#DejaVuSans-31"/>
       <use xlink:href="#DejaVuSans-30" x="63.623047"/>
      </g>
     </g>
    </g>
    <g id="ytick_3">
     <g id="line2d_15">
      <path d="M 90 278.890925 
L 648 278.890925 
" clip-path="url(#p17197ae2f7)" style="fill: none; stroke: #b0b0b0; stroke-width: 0.8; stroke-linecap: square"/>
     </g>
     <g id="line2d_16">
      <g>
       <use xlink:href="#m3bc1a6d51c" x="90" y="278.890925" style="stroke: #000000; stroke-width: 0.8"/>
      </g>
     </g>
     <g id="text_9">
      <!-- 15 -->
      <g transform="translate(70.275 282.690144) scale(0.1 -0.1)">
       <use xlink:href="#DejaVuSans-31"/>
       <use xlink:href="#DejaVuSans-35" x="63.623047"/>
      </g>
     </g>
    </g>
    <g id="ytick_4">
     <g id="line2d_17">
      <path d="M 90 228.016196 
L 648 228.016196 
" clip-path="url(#p17197ae2f7)" style="fill: none; stroke: #b0b0b0; stroke-width: 0.8; stroke-linecap: square"/>
     </g>
     <g id="line2d_18">
      <g>
       <use xlink:href="#m3bc1a6d51c" x="90" y="228.016196" style="stroke: #000000; stroke-width: 0.8"/>
      </g>
     </g>
     <g id="text_10">
      <!-- 20 -->
      <g transform="translate(70.275 231.815414) scale(0.1 -0.1)">
       <use xlink:href="#DejaVuSans-32"/>
       <use xlink:href="#DejaVuSans-30" x="63.623047"/>
      </g>
     </g>
    </g>
    <g id="ytick_5">
     <g id="line2d_19">
      <path d="M 90 177.141466 
L 648 177.141466 
" clip-path="url(#p17197ae2f7)" style="fill: none; stroke: #b0b0b0; stroke-width: 0.8; stroke-linecap: square"/>
     </g>
     <g id="line2d_20">
      <g>
       <use xlink:href="#m3bc1a6d51c" x="90" y="177.141466" style="stroke: #000000; stroke-width: 0.8"/>
      </g>
     </g>
     <g id="text_11">
      <!-- 25 -->
      <g transform="translate(70.275 180.940685) scale(0.1 -0.1)">
       <use xlink:href="#DejaVuSans-32"/>
       <use xlink:href="#DejaVuSans-35" x="63.623047"/>
      </g>
     </g>
    </g>
    <g id="ytick_6">
     <g id="line2d_21">
      <path d="M 90 126.266737 
L 648 126.266737 
" clip-path="url(#p17197ae2f7)" style="fill: none; stroke: #b0b0b0; stroke-width: 0.8; stroke-linecap: square"/>
     </g>
     <g id="line2d_22">
      <g>
       <use xlink:href="#m3bc1a6d51c" x="90" y="126.266737" style="stroke: #000000; stroke-width: 0.8"/>
      </g>
     </g>
     <g id="text_12">
      <!-- 30 -->
      <g transform="translate(70.275 130.065956) scale(0.1 -0.1)">
       <defs>
        <path id="DejaVuSans-33" d="M 2597 2516 
Q 3050 2419 3304 2112 
Q 3559 1806 3559 1356 
Q 3559 666 3084 287 
Q 2609 -91 1734 -91 
Q 1441 -91 1130 -33 
Q 819 25 488 141 
L 488 750 
Q 750 597 1062 519 
Q 1375 441 1716 441 
Q 2309 441 2620 675 
Q 2931 909 2931 1356 
Q 2931 1769 2642 2001 
Q 2353 2234 1838 2234 
L 1294 2234 
L 1294 2753 
L 1863 2753 
Q 2328 2753 2575 2939 
Q 2822 3125 2822 3475 
Q 2822 3834 2567 4026 
Q 2313 4219 1838 4219 
Q 1578 4219 1281 4162 
Q 984 4106 628 3988 
L 628 4550 
Q 988 4650 1302 4700 
Q 1616 4750 1894 4750 
Q 2613 4750 3031 4423 
Q 3450 4097 3450 3541 
Q 3450 3153 3228 2886 
Q 3006 2619 2597 2516 
z
" transform="scale(0.015625)"/>
       </defs>
       <use xlink:href="#DejaVuSans-33"/>
       <use xlink:href="#DejaVuSans-30" x="63.623047"/>
      </g>
     </g>
    </g>
    <g id="ytick_7">
     <g id="line2d_23">
      <path d="M 90 75.392008 
L 648 75.392008 
" clip-path="url(#p17197ae2f7)" style="fill: none; stroke: #b0b0b0; stroke-width: 0.8; stroke-linecap: square"/>
     </g>
     <g id="line2d_24">
      <g>
       <use xlink:href="#m3bc1a6d51c" x="90" y="75.392008" style="stroke: #000000; stroke-width: 0.8"/>
      </g>
     </g>
     <g id="text_13">
      <!-- 35 -->
      <g transform="translate(70.275 79.191227) scale(0.1 -0.1)">
       <use xlink:href="#DejaVuSans-33"/>
       <use xlink:href="#DejaVuSans-35" x="63.623047"/>
      </g>
     </g>
    </g>
    <g id="text_14">
     <!-- Entropy -->
     <g transform="translate(62.9475 249.23875) rotate(-90) scale(0.16 -0.16)">
      <defs>
       <path id="DejaVuSans-74" d="M 1172 4494 
L 1172 3500 
L 2356 3500 
L 2356 3053 
L 1172 3053 
L 1172 1153 
Q 1172 725 1289 603 
Q 1406 481 1766 481 
L 2356 481 
L 2356 0 
L 1766 0 
Q 1100 0 847 248 
Q 594 497 594 1153 
L 594 3053 
L 172 3053 
L 172 3500 
L 594 3500 
L 594 4494 
L 1172 4494 
z
" transform="scale(0.015625)"/>
       <path id="DejaVuSans-6f" d="M 1959 3097 
Q 1497 3097 1228 2736 
Q 959 2375 959 1747 
Q 959 1119 1226 758 
Q 1494 397 1959 397 
Q 2419 397 2687 759 
Q 2956 1122 2956 1747 
Q 2956 2369 2687 2733 
Q 2419 3097 1959 3097 
z
M 1959 3584 
Q 2709 3584 3137 3096 
Q 3566 2609 3566 1747 
Q 3566 888 3137 398 
Q 2709 -91 1959 -91 
Q 1206 -91 779 398 
Q 353 888 353 1747 
Q 353 2609 779 3096 
Q 1206 3584 1959 3584 
z
" transform="scale(0.015625)"/>
       <path id="DejaVuSans-70" d="M 1159 525 
L 1159 -1331 
L 581 -1331 
L 581 3500 
L 1159 3500 
L 1159 2969 
Q 1341 3281 1617 3432 
Q 1894 3584 2278 3584 
Q 2916 3584 3314 3078 
Q 3713 2572 3713 1747 
Q 3713 922 3314 415 
Q 2916 -91 2278 -91 
Q 1894 -91 1617 61 
Q 1341 213 1159 525 
z
M 3116 1747 
Q 3116 2381 2855 2742 
Q 2594 3103 2138 3103 
Q 1681 3103 1420 2742 
Q 1159 2381 1159 1747 
Q 1159 1113 1420 752 
Q 1681 391 2138 391 
Q 2594 391 2855 752 
Q 3116 1113 3116 1747 
z
" transform="scale(0.015625)"/>
      </defs>
      <use xlink:href="#DejaVuSans-45"/>
      <use xlink:href="#DejaVuSans-6e" x="63.183594"/>
      <use xlink:href="#DejaVuSans-74" x="126.5625"/>
      <use xlink:href="#DejaVuSans-72" x="165.771484"/>
      <use xlink:href="#DejaVuSans-6f" x="204.634766"/>
      <use xlink:href="#DejaVuSans-70" x="265.816406"/>
      <use xlink:href="#DejaVuSans-79" x="329.292969"/>
     </g>
    </g>
   </g>
   <g id="patch_3">
    <path d="M 90 384.48 
L 90 51.84 
" style="fill: none; stroke: #000000; stroke-width: 0.8; stroke-linejoin: miter; stroke-linecap: square"/>
   </g>
   <g id="patch_4">
    <path d="M 648 384.48 
L 648 51.84 
" style="fill: none; stroke: #000000; stroke-width: 0.8; stroke-linejoin: miter; stroke-linecap: square"/>
   </g>
   <g id="patch_5">
    <path d="M 90 384.48 
L 648 384.48 
" style="fill: none; stroke: #000000; stroke-width: 0.8; stroke-linejoin: miter; stroke-linecap: square"/>
   </g>
   <g id="patch_6">
    <path d="M 90 51.84 
L 648 51.84 
" style="fill: none; stroke: #000000; stroke-width: 0.8; stroke-linejoin: miter; stroke-linecap: square"/>
   </g>
   <g id="text_15">
    <!-- Entropy Comparison for three systems -->
    <g transform="translate(176.004687 45.84) scale(0.2 -0.2)">
     <defs>
      <path id="DejaVuSans-20" transform="scale(0.015625)"/>
      <path id="DejaVuSans-43" d="M 4122 4306 
L 4122 3641 
Q 3803 3938 3442 4084 
Q 3081 4231 2675 4231 
Q 1875 4231 1450 3742 
Q 1025 3253 1025 2328 
Q 1025 1406 1450 917 
Q 1875 428 2675 428 
Q 3081 428 3442 575 
Q 3803 722 4122 1019 
L 4122 359 
Q 3791 134 3420 21 
Q 3050 -91 2638 -91 
Q 1578 -91 968 557 
Q 359 1206 359 2328 
Q 359 3453 968 4101 
Q 1578 4750 2638 4750 
Q 3056 4750 3426 4639 
Q 3797 4528 4122 4306 
z
" transform="scale(0.015625)"/>
      <path id="DejaVuSans-6d" d="M 3328 2828 
Q 3544 3216 3844 3400 
Q 4144 3584 4550 3584 
Q 5097 3584 5394 3201 
Q 5691 2819 5691 2113 
L 5691 0 
L 5113 0 
L 5113 2094 
Q 5113 2597 4934 2840 
Q 4756 3084 4391 3084 
Q 3944 3084 3684 2787 
Q 3425 2491 3425 1978 
L 3425 0 
L 2847 0 
L 2847 2094 
Q 2847 2600 2669 2842 
Q 2491 3084 2119 3084 
Q 1678 3084 1418 2786 
Q 1159 2488 1159 1978 
L 1159 0 
L 581 0 
L 581 3500 
L 1159 3500 
L 1159 2956 
Q 1356 3278 1631 3431 
Q 1906 3584 2284 3584 
Q 2666 3584 2933 3390 
Q 3200 3197 3328 2828 
z
" transform="scale(0.015625)"/>
      <path id="DejaVuSans-61" d="M 2194 1759 
Q 1497 1759 1228 1600 
Q 959 1441 959 1056 
Q 959 750 1161 570 
Q 1363 391 1709 391 
Q 2188 391 2477 730 
Q 2766 1069 2766 1631 
L 2766 1759 
L 2194 1759 
z
M 3341 1997 
L 3341 0 
L 2766 0 
L 2766 531 
Q 2569 213 2275 61 
Q 1981 -91 1556 -91 
Q 1019 -91 701 211 
Q 384 513 384 1019 
Q 384 1609 779 1909 
Q 1175 2209 1959 2209 
L 2766 2209 
L 2766 2266 
Q 2766 2663 2505 2880 
Q 2244 3097 1772 3097 
Q 1472 3097 1187 3025 
Q 903 2953 641 2809 
L 641 3341 
Q 956 3463 1253 3523 
Q 1550 3584 1831 3584 
Q 2591 3584 2966 3190 
Q 3341 2797 3341 1997 
z
" transform="scale(0.015625)"/>
      <path id="DejaVuSans-69" d="M 603 3500 
L 1178 3500 
L 1178 0 
L 603 0 
L 603 3500 
z
M 603 4863 
L 1178 4863 
L 1178 4134 
L 603 4134 
L 603 4863 
z
" transform="scale(0.015625)"/>
      <path id="DejaVuSans-73" d="M 2834 3397 
L 2834 2853 
Q 2591 2978 2328 3040 
Q 2066 3103 1784 3103 
Q 1356 3103 1142 2972 
Q 928 2841 928 2578 
Q 928 2378 1081 2264 
Q 1234 2150 1697 2047 
L 1894 2003 
Q 2506 1872 2764 1633 
Q 3022 1394 3022 966 
Q 3022 478 2636 193 
Q 2250 -91 1575 -91 
Q 1294 -91 989 -36 
Q 684 19 347 128 
L 347 722 
Q 666 556 975 473 
Q 1284 391 1588 391 
Q 1994 391 2212 530 
Q 2431 669 2431 922 
Q 2431 1156 2273 1281 
Q 2116 1406 1581 1522 
L 1381 1569 
Q 847 1681 609 1914 
Q 372 2147 372 2553 
Q 372 3047 722 3315 
Q 1072 3584 1716 3584 
Q 2034 3584 2315 3537 
Q 2597 3491 2834 3397 
z
" transform="scale(0.015625)"/>
      <path id="DejaVuSans-66" d="M 2375 4863 
L 2375 4384 
L 1825 4384 
Q 1516 4384 1395 4259 
Q 1275 4134 1275 3809 
L 1275 3500 
L 2222 3500 
L 2222 3053 
L 1275 3053 
L 1275 0 
L 697 0 
L 697 3053 
L 147 3053 
L 147 3500 
L 697 3500 
L 697 3744 
Q 697 4328 969 4595 
Q 1241 4863 1831 4863 
L 2375 4863 
z
" transform="scale(0.015625)"/>
      <path id="DejaVuSans-68" d="M 3513 2113 
L 3513 0 
L 2938 0 
L 2938 2094 
Q 2938 2591 2744 2837 
Q 2550 3084 2163 3084 
Q 1697 3084 1428 2787 
Q 1159 2491 1159 1978 
L 1159 0 
L 581 0 
L 581 4863 
L 1159 4863 
L 1159 2956 
Q 1366 3272 1645 3428 
Q 1925 3584 2291 3584 
Q 2894 3584 3203 3211 
Q 3513 2838 3513 2113 
z
" transform="scale(0.015625)"/>
     </defs>
     <use xlink:href="#DejaVuSans-45"/>
     <use xlink:href="#DejaVuSans-6e" x="63.183594"/>
     <use xlink:href="#DejaVuSans-74" x="126.5625"/>
     <use xlink:href="#DejaVuSans-72" x="165.771484"/>
     <use xlink:href="#DejaVuSans-6f" x="204.634766"/>
     <use xlink:href="#DejaVuSans-70" x="265.816406"/>
     <use xlink:href="#DejaVuSans-79" x="329.292969"/>
     <use xlink:href="#DejaVuSans-20" x="388.472656"/>
     <use xlink:href="#DejaVuSans-43" x="420.259766"/>
     <use xlink:href="#DejaVuSans-6f" x="490.083984"/>
     <use xlink:href="#DejaVuSans-6d" x="551.265625"/>
     <use xlink:href="#DejaVuSans-70" x="648.677734"/>
     <use xlink:href="#DejaVuSans-61" x="712.154297"/>
     <use xlink:href="#DejaVuSans-72" x="773.433594"/>
     <use xlink:href="#DejaVuSans-69" x="814.546875"/>
     <use xlink:href="#DejaVuSans-73" x="842.330078"/>
     <use xlink:href="#DejaVuSans-6f" x="894.429688"/>
     <use xlink:href="#DejaVuSans-6e" x="955.611328"/>
     <use xlink:href="#DejaVuSans-20" x="1018.990234"/>
     <use xlink:href="#DejaVuSans-66" x="1050.777344"/>
     <use xlink:href="#DejaVuSans-6f" x="1085.982422"/>
     <use xlink:href="#DejaVuSans-72" x="1147.164062"/>
     <use xlink:href="#DejaVuSans-20" x="1188.277344"/>
     <use xlink:href="#DejaVuSans-74" x="1220.064453"/>
     <use xlink:href="#DejaVuSans-68" x="1259.273438"/>
     <use xlink:href="#DejaVuSans-72" x="1322.652344"/>
     <use xlink:href="#DejaVuSans-65" x="1361.515625"/>
     <use xlink:href="#DejaVuSans-65" x="1423.039062"/>
     <use xlink:href="#DejaVuSans-20" x="1484.5625"/>
     <use xlink:href="#DejaVuSans-73" x="1516.349609"/>
     <use xlink:href="#DejaVuSans-79" x="1568.449219"/>
     <use xlink:href="#DejaVuSans-73" x="1627.628906"/>
     <use xlink:href="#DejaVuSans-74" x="1679.728516"/>
     <use xlink:href="#DejaVuSans-65" x="1718.9375"/>
     <use xlink:href="#DejaVuSans-6d" x="1780.460938"/>
     <use xlink:href="#DejaVuSans-73" x="1877.873047"/>
    </g>
   </g>
   <g id="legend_1">
    <g id="patch_7">
     <path d="M 524.7475 135.095 
L 636.8 135.095 
Q 640 135.095 640 131.895 
L 640 63.04 
Q 640 59.84 636.8 59.84 
L 524.7475 59.84 
Q 521.5475 59.84 521.5475 63.04 
L 521.5475 131.895 
Q 521.5475 135.095 524.7475 135.095 
z
" style="fill: #ffffff; opacity: 0.8; stroke: #cccccc; stroke-linejoin: miter"/>
    </g>
    <g id="PathCollection_4">
     <g>
      <use xlink:href="#m9b1eb30caf" x="543.9475" y="74.1975" style="fill: #0000ff; stroke: #0000ff"/>
     </g>
    </g>
    <g id="text_16">
     <!-- 10 Dice -->
     <g transform="translate(572.7475 78.3975) scale(0.16 -0.16)">
      <defs>
       <path id="DejaVuSans-44" d="M 1259 4147 
L 1259 519 
L 2022 519 
Q 2988 519 3436 956 
Q 3884 1394 3884 2338 
Q 3884 3275 3436 3711 
Q 2988 4147 2022 4147 
L 1259 4147 
z
M 628 4666 
L 1925 4666 
Q 3281 4666 3915 4102 
Q 4550 3538 4550 2338 
Q 4550 1131 3912 565 
Q 3275 0 1925 0 
L 628 0 
L 628 4666 
z
" transform="scale(0.015625)"/>
       <path id="DejaVuSans-63" d="M 3122 3366 
L 3122 2828 
Q 2878 2963 2633 3030 
Q 2388 3097 2138 3097 
Q 1578 3097 1268 2742 
Q 959 2388 959 1747 
Q 959 1106 1268 751 
Q 1578 397 2138 397 
Q 2388 397 2633 464 
Q 2878 531 3122 666 
L 3122 134 
Q 2881 22 2623 -34 
Q 2366 -91 2075 -91 
Q 1284 -91 818 406 
Q 353 903 353 1747 
Q 353 2603 823 3093 
Q 1294 3584 2113 3584 
Q 2378 3584 2631 3529 
Q 2884 3475 3122 3366 
z
" transform="scale(0.015625)"/>
      </defs>
      <use xlink:href="#DejaVuSans-31"/>
      <use xlink:href="#DejaVuSans-30" x="63.623047"/>
      <use xlink:href="#DejaVuSans-20" x="127.246094"/>
      <use xlink:href="#DejaVuSans-44" x="159.033203"/>
      <use xlink:href="#DejaVuSans-69" x="236.035156"/>
      <use xlink:href="#DejaVuSans-63" x="263.818359"/>
      <use xlink:href="#DejaVuSans-65" x="318.798828"/>
     </g>
    </g>
    <g id="PathCollection_5">
     <g>
      <use xlink:href="#m28c1626cd1" x="543.9475" y="97.6825" style="fill: #ff0000; stroke: #ff0000"/>
     </g>
    </g>
    <g id="text_17">
     <!-- 10 Dice -->
     <g transform="translate(572.7475 101.8825) scale(0.16 -0.16)">
      <use xlink:href="#DejaVuSans-31"/>
      <use xlink:href="#DejaVuSans-30" x="63.623047"/>
      <use xlink:href="#DejaVuSans-20" x="127.246094"/>
      <use xlink:href="#DejaVuSans-44" x="159.033203"/>
      <use xlink:href="#DejaVuSans-69" x="236.035156"/>
      <use xlink:href="#DejaVuSans-63" x="263.818359"/>
      <use xlink:href="#DejaVuSans-65" x="318.798828"/>
     </g>
    </g>
    <g id="PathCollection_6">
     <g>
      <use xlink:href="#m0a5356676d" x="543.9475" y="121.1675" style="fill: #008000; stroke: #008000"/>
     </g>
    </g>
    <g id="text_18">
     <!-- 20 Dice -->
     <g transform="translate(572.7475 125.3675) scale(0.16 -0.16)">
      <use xlink:href="#DejaVuSans-32"/>
      <use xlink:href="#DejaVuSans-30" x="63.623047"/>
      <use xlink:href="#DejaVuSans-20" x="127.246094"/>
      <use xlink:href="#DejaVuSans-44" x="159.033203"/>
      <use xlink:href="#DejaVuSans-69" x="236.035156"/>
      <use xlink:href="#DejaVuSans-63" x="263.818359"/>
      <use xlink:href="#DejaVuSans-65" x="318.798828"/>
     </g>
    </g>
   </g>
  </g>
 </g>
 <defs>
  <clipPath id="p17197ae2f7">
   <rect x="90" y="51.84" width="558" height="332.64"/>
  </clipPath>
 </defs>
</svg>
